<?xml version="1.0" standalone="no"?>
<!DOCTYPE svg PUBLIC "-//W3C//DTD SVG 20010904//EN"
 "http://www.w3.org/TR/2001/REC-SVG-20010904/DTD/svg10.dtd">
<svg version="1.0" xmlns="http://www.w3.org/2000/svg"
 width="1149.000000pt" height="580.000000pt" viewBox="0 0 1149.000000 580.000000"
 preserveAspectRatio="xMidYMid meet">
<metadata>
Created by potrace 1.16, written by Peter Selinger 2001-2019
</metadata>
<g transform="translate(0.000000,580.000000) scale(0.100000,-0.100000)"
fill="#000000" stroke="none">
<path d="M3790 5536 c-868 -353 -1501 -616 -1766 -732 -120 -52 -224 -98 -231
-100 -17 -8 -26 47 -22 133 l4 75 -135 54 c-74 30 -138 54 -142 54 -4 0 -8
-78 -8 -174 l0 -174 -522 -207 c-367 -145 -530 -214 -545 -232 -17 -17 -23
-36 -23 -69 0 -36 6 -51 36 -83 19 -22 55 -49 79 -61 l43 -21 143 36 143 36
30 -36 31 -36 234 85 c129 47 236 85 237 83 4 -4 -27 -287 -52 -457 -79 -560
-174 -917 -324 -1225 -118 -244 -163 -417 -164 -645 -1 -179 21 -268 79 -319
65 -57 115 -41 219 70 370 391 617 1297 687 2514 6 110 12 201 13 201 7 7
1496 599 1496 596 0 -4 -145 -452 -166 -511 -3 -9 -24 6 -67 46 -71 69 -101
83 -125 59 -15 -14 -15 -25 2 -122 57 -337 28 -738 -90 -1244 -63 -266 -208
-727 -317 -1005 l-43 -110 -1254 -467 c-690 -257 -1258 -468 -1261 -470 -6 -3
25 -256 33 -263 2 -2 735 207 1628 465 894 259 1625 470 1626 470 1 0 -12 -46
-28 -102 -47 -166 -99 -435 -105 -544 -9 -151 19 -196 113 -181 41 7 124 56
124 74 0 29 162 498 212 613 55 129 111 225 137 235 106 41 423 -1004 461
-1515 11 -156 31 -221 85 -277 37 -39 46 -43 89 -43 57 0 91 20 117 71 72 141
-55 640 -395 1555 -31 83 -56 154 -56 158 0 4 30 -18 68 -47 99 -81 246 -173
331 -208 149 -62 258 -61 323 4 124 124 152 572 77 1232 -36 321 -106 756
-172 1078 l-22 107 -159 110 c-112 78 -162 107 -167 98 -3 -7 -172 -405 -374
-884 l-368 -871 -51 52 c-50 51 -118 86 -200 102 l-29 6 4 -148 4 -148 -133
-45 c-73 -24 -135 -42 -137 -40 -2 2 197 609 442 1348 l446 1345 -92 85 c-50
47 -91 90 -91 96 0 5 189 86 420 178 231 92 420 172 420 177 0 12 -140 362
-148 371 -4 4 -297 -111 -652 -256z m733 -2108 c146 -764 173 -1321 75 -1550
l-20 -47 -360 180 c-298 149 -359 183 -353 197 25 67 611 1412 616 1412 3 0
22 -87 42 -192z"/>
<path d="M11266 4957 c-16 -12 -154 -115 -305 -228 -1224 -914 -2253 -1877
-2854 -2672 -54 -70 -97 -125 -97 -123 0 14 60 255 115 461 230 862 473 1526
670 1825 l55 83 -137 144 c-89 95 -142 143 -152 140 -9 -2 -428 -245 -931
-540 -767 -450 -916 -533 -922 -519 -4 9 -52 258 -108 552 -55 294 -103 547
-106 562 -4 20 -51 68 -166 168 -88 78 -162 139 -165 137 -2 -3 60 -391 138
-863 l142 -859 111 -112 c61 -62 116 -113 123 -113 6 0 344 182 749 405 406
222 740 403 741 401 2 -2 -28 -120 -67 -262 -143 -527 -282 -1099 -365 -1505
-82 -404 -120 -652 -137 -906 -11 -163 -11 -173 7 -193 58 -64 192 34 472 342
71 79 316 361 544 628 663 775 856 988 1268 1401 303 303 485 469 721 658 272
218 536 391 763 499 64 31 117 59 117 62 0 17 -177 444 -185 446 -6 2 -23 -7
-39 -19z"/>
<path d="M5547 3533 c-460 -1382 -730 -2262 -808 -2632 -26 -123 -23 -268 6
-339 64 -156 207 -87 466 223 84 101 152 150 534 388 222 138 1211 732 1553
932 232 136 218 114 156 242 -61 123 -149 193 -229 180 -18 -3 -261 -140 -541
-304 -1106 -650 -1456 -855 -1458 -851 -1 1 172 548 385 1213 214 666 387
1217 385 1226 -4 21 -219 369 -227 369 -4 0 -104 -291 -222 -647z"/>
<path d="M2184 3953 c-178 -387 -266 -692 -268 -928 -1 -152 16 -220 71 -285
30 -35 40 -40 76 -40 36 0 47 6 93 54 89 92 206 356 307 693 25 81 46 157 48
168 3 14 -44 87 -136 217 -77 108 -143 197 -148 197 -4 1 -24 -34 -43 -76z"/>
<path d="M6761 2869 c-222 -104 -406 -190 -408 -192 -6 -6 23 -396 30 -403 6
-7 1007 426 1007 436 0 12 -207 344 -215 346 -6 1 -192 -83 -414 -187z"/>
</g>
</svg>
